<?xml version="1.0" encoding="UTF-8" standalone="no"?>
<svg
   xmlns:dc="http://purl.org/dc/elements/1.1/"
   xmlns:cc="http://creativecommons.org/ns#"
   xmlns:rdf="http://www.w3.org/1999/02/22-rdf-syntax-ns#"
   xmlns:svg="http://www.w3.org/2000/svg"
   xmlns="http://www.w3.org/2000/svg"
   xmlns:sodipodi="http://sodipodi.sourceforge.net/DTD/sodipodi-0.dtd"
   xmlns:inkscape="http://www.inkscape.org/namespaces/inkscape"
   preserveAspectRatio="xMinYMin meet"
   focusable="false"
   version="1.1"
   id="svg82"
   sodipodi:docname="linkedin.svg"
   inkscape:version="0.92.1 r15371"
   width="48"
   height="48">
  <metadata
     id="metadata88">
    <rdf:RDF>
      <cc:Work
         rdf:about="">
        <dc:format>image/svg+xml</dc:format>
        <dc:type
           rdf:resource="http://purl.org/dc/dcmitype/StillImage" />
        <dc:title></dc:title>
      </cc:Work>
    </rdf:RDF>
  </metadata>
  <defs
     id="defs86">
    <defs
       id="defs2" />
  </defs>
  <sodipodi:namedview
     pagecolor="#ffffff"
     bordercolor="#666666"
     borderopacity="1"
     objecttolerance="10"
     gridtolerance="10"
     guidetolerance="10"
     inkscape:pageopacity="0"
     inkscape:pageshadow="2"
     inkscape:window-width="1920"
     inkscape:window-height="1016"
     id="namedview84"
     showgrid="false"
     inkscape:zoom="4.72"
     inkscape:cx="17.81652"
     inkscape:cy="25.835526"
     inkscape:window-x="0"
     inkscape:window-y="27"
     inkscape:window-maximized="1"
     inkscape:current-layer="svg82"
     fit-margin-top="0"
     fit-margin-left="0"
     fit-margin-right="0"
     fit-margin-bottom="0" />
  <g
     style="fill:none;fill-opacity:1;fill-rule:evenodd;stroke:none;stroke-width:1"
     id="g78"
     class="bug-48dp">
    <rect
       style="fill:#ffffff"
       id="rect74"
       rx="4"
       height="46"
       width="46"
       y="1"
       x="1"
       class="bug-text-color" />
    <path
       style="fill:#0077b5"
       inkscape:connector-curvature="0"
       id="path76"
       class="background"
       d="M 0,4.0098932 C 0,1.7952903 1.7940524,0 4.0098932,0 H 43.990107 C 46.20471,0 48,1.7940524 48,4.0098932 V 43.990107 C 48,46.20471 46.205947,48 43.990107,48 H 4.0098932 C 1.7952903,48 0,46.205947 0,43.990107 Z M 19,18.3 h 6.5 v 3.266 C 26.437,19.688 28.838,18 32.445,18 39.359,18 41,21.738 41,28.597 V 41.3 H 34 V 30.159 C 34,26.253 33.063,24.05 30.68,24.05 27.375,24.05 26,26.425 26,30.159 V 41.3 H 19 Z M 7,41 h 7 V 18 H 7 Z M 15,10.5 C 15,12.985 12.985,15 10.5,15 8.015,15 6,12.985 6,10.5 6,8.015 8.015,6 10.5,6 12.985,6 15,8.015 15,10.5 Z" />
  </g>
</svg>
