<?xml version="1.0" encoding="UTF-8" standalone="no"?>
<svg
   xmlns:dc="http://purl.org/dc/elements/1.1/"
   xmlns:cc="http://creativecommons.org/ns#"
   xmlns:rdf="http://www.w3.org/1999/02/22-rdf-syntax-ns#"
   xmlns:svg="http://www.w3.org/2000/svg"
   xmlns="http://www.w3.org/2000/svg"
   xmlns:xlink="http://www.w3.org/1999/xlink"
   id="svg8"
   version="1.1"
   viewBox="0 0 97.514526 46.979164"
   height="46.979164mm"
   width="97.514526mm">
  <defs
     id="defs2">
    <linearGradient
       id="linearGradient4705">
      <stop
         id="stop4701"
         offset="0"
         style="stop-color:#63de5d;stop-opacity:1;" />
      <stop
         id="stop4703"
         offset="1"
         style="stop-color:#26bd1e;stop-opacity:1" />
    </linearGradient>
    <radialGradient
       xlink:href="#linearGradient4705"
       id="radialGradient4724"
       cx="30.10708"
       cy="42.549583"
       fx="30.10708"
       fy="42.549583"
       r="12.909165"
       gradientTransform="matrix(1,0,0,0.94930025,0,2.1572533)"
       gradientUnits="userSpaceOnUse" />
    <radialGradient
       xlink:href="#linearGradient4705"
       id="radialGradient4732"
       cx="30.10708"
       cy="42.549583"
       fx="30.10708"
       fy="42.549583"
       r="12.909165"
       gradientTransform="matrix(1,0,0,0.94930025,0,2.1572533)"
       gradientUnits="userSpaceOnUse" />
    <radialGradient
       xlink:href="#linearGradient4705"
       id="radialGradient4740"
       cx="30.10708"
       cy="42.549583"
       fx="30.10708"
       fy="42.549583"
       r="12.909165"
       gradientTransform="matrix(1,0,0,0.94930025,0,2.1572533)"
       gradientUnits="userSpaceOnUse" />
    <radialGradient
       xlink:href="#linearGradient4705"
       id="radialGradient4748"
       cx="30.10708"
       cy="42.549583"
       fx="30.10708"
       fy="42.549583"
       r="12.909165"
       gradientTransform="matrix(1,0,0,0.94930025,0,2.1572533)"
       gradientUnits="userSpaceOnUse" />
    <radialGradient
       xlink:href="#linearGradient4705"
       id="radialGradient4756"
       cx="30.10708"
       cy="42.549583"
       fx="30.10708"
       fy="42.549583"
       r="12.909165"
       gradientTransform="matrix(1,0,0,0.94930025,0,2.1572533)"
       gradientUnits="userSpaceOnUse" />
    <radialGradient
       xlink:href="#linearGradient4705"
       id="radialGradient4764"
       cx="30.10708"
       cy="42.549583"
       fx="30.10708"
       fy="42.549583"
       r="12.909165"
       gradientTransform="matrix(1,0,0,0.94930025,0,2.1572533)"
       gradientUnits="userSpaceOnUse" />
  </defs>
  <metadata
     id="metadata5">
    <rdf:RDF>
      <cc:Work
         rdf:about="">
        <dc:format>image/svg+xml</dc:format>
        <dc:type
           rdf:resource="http://purl.org/dc/dcmitype/StillImage" />
        <dc:title></dc:title>
      </cc:Work>
    </rdf:RDF>
  </metadata>
  <g
     transform="translate(-16.197916,-19.510417)"
     id="layer1">
    <path
       id="path4551-7"
       d="m 30.427083,28.447918 c -7.14375,-10e-6 -13.229167,6.08542 -13.229169,13.22917 2e-6,7.14375 6.085419,13.229171 13.229169,13.229171 7.14375,0 13.229167,-6.085421 13.229167,-13.229171 0,-7.14375 -6.085417,-13.22917 -13.229167,-13.22917 z"
       style="opacity:1;fill:#4063ad;fill-opacity:1;fill-rule:evenodd;stroke:none;stroke-width:0.26458332px;stroke-linecap:butt;stroke-linejoin:miter;stroke-opacity:1" />
    <path
       id="path4551-2-0"
       d="m 30.427083,33.205038 c -4.574901,-1e-5 -8.472038,3.89714 -8.472039,8.47204 10e-7,4.5749 3.897138,8.47204 8.472039,8.47204 4.5749,0 8.472037,-3.89714 8.472037,-8.47204 0,-4.5749 -3.897137,-8.47204 -8.472037,-8.47204 z"
       style="opacity:1;fill:#6eda68;fill-opacity:1;fill-rule:evenodd;stroke:none;stroke-width:0.16944075px;stroke-linecap:butt;stroke-linejoin:miter;stroke-opacity:1" />
    <path
       style="fill:#6eda68;fill-opacity:1;fill-rule:evenodd;stroke:none;stroke-width:0.26458332px;stroke-linecap:butt;stroke-linejoin:miter;stroke-opacity:1"
       d="m 110.33119,20.510417 c -1.32292,-1e-6 -2.38125,1.058333 -2.38125,2.38125 0,1.322916 1.05833,2.381249 2.38125,2.381249 1.32291,0 2.38125,-1.058333 2.38125,-2.38125 0,-1.322916 -1.05834,-2.38125 -2.38125,-2.381249 z"
       id="path4649-5" />
    <path
       style="fill:#6eda68;fill-opacity:1;fill-rule:evenodd;stroke:none;stroke-width:0.26458332px;stroke-linecap:butt;stroke-linejoin:miter;stroke-opacity:1"
       d="m 110.33119,28.447917 c -1.32292,-1e-6 -2.38125,1.058333 -2.38125,2.38125 V 52.525 c 0,1.322917 1.14626,2.38125 2.38125,2.38125 1.2345,0 2.38125,-1.058333 2.38125,-2.38125 V 30.829166 c 0,-1.322916 -1.05834,-2.38125 -2.38125,-2.381249 z"
       id="path4649-5-2" />
    <path
       id="path4649-5-2-7"
       d="m 60.55886,28.447959 c -8.7297,4.2e-5 -12.942131,7.196703 -12.964584,13.162462 -1.03e-4,0.0223 -0.0016,0.04434 -0.0016,0.06666 0.0031,7.13845 0.0016,14.288608 0.0016,21.43125 0,1.322916 1.146265,2.38125 2.38125,2.38125 1.234499,0 2.38125,-1.058334 2.38125,-2.38125 V 51.730733 c 2.317078,1.968016 5.020763,3.175516 8.200533,3.175516 7.14375,0 13.236504,-6.108803 13.236504,-13.252553 0,-7.14375 -6.091203,-13.205737 -13.234953,-13.205737 z m 0,4.762457 c 4.497916,4.3e-5 8.590933,3.968793 8.590933,8.466667 0,4.497959 -4.093017,8.466709 -8.590933,8.466666 -4.497917,4.3e-5 -8.202084,-3.968707 -8.202084,-8.466666 0,-4.497874 3.704167,-8.466624 8.202084,-8.466667 z"
       style="fill:#6eda68;fill-opacity:1;fill-rule:evenodd;stroke:none;stroke-width:0.26458332px;stroke-linecap:butt;stroke-linejoin:miter;stroke-opacity:1" />
    <path
       id="path4649-5-2-7-6"
       d="m 90.685911,28.447957 c -8.729681,4.2e-5 -12.942112,7.196704 -12.964565,13.162463 -1.03e-4,0.0223 -0.0016,0.04434 -0.0016,0.06666 0.0031,7.138451 0.0016,14.288609 0.0016,21.43125 0,1.322917 1.146265,2.38125 2.38125,2.38125 1.234498,0 2.38125,-1.058333 2.38125,-2.38125 V 51.730732 c 2.317078,1.968016 5.020763,3.175516 8.200515,3.175516 7.143711,0 13.236469,-6.108803 13.236469,-13.252553 0,-7.14375 -6.091208,-13.205738 -13.234919,-13.205738 z m 0,4.762458 c 4.497896,4.2e-5 8.590882,3.968792 8.590882,8.466666 0,4.497959 -4.092986,8.466709 -8.590882,8.466667 -4.497898,4.2e-5 -8.202065,-3.968708 -8.202065,-8.466667 0,-4.497874 3.704167,-8.466624 8.202065,-8.466666 z"
       style="fill:#6eda68;fill-opacity:1;fill-rule:evenodd;stroke:none;stroke-width:0.26458332px;stroke-linecap:butt;stroke-linejoin:miter;stroke-opacity:1" />
  </g>
</svg>
