<?xml version="1.0" encoding="UTF-8" standalone="no"?>
<!-- Created with Inkscape (http://www.inkscape.org/) -->

<svg
   xmlns:dc="http://purl.org/dc/elements/1.1/"
   xmlns:cc="http://creativecommons.org/ns#"
   xmlns:rdf="http://www.w3.org/1999/02/22-rdf-syntax-ns#"
   xmlns:svg="http://www.w3.org/2000/svg"
   xmlns="http://www.w3.org/2000/svg"
   xmlns:sodipodi="http://sodipodi.sourceforge.net/DTD/sodipodi-0.dtd"
   xmlns:inkscape="http://www.inkscape.org/namespaces/inkscape"
   width="139.78125"
   height="36.062889"
   id="svg2985"
   version="1.1"
   inkscape:version="0.91 r13725"
   sodipodi:docname="piollo.svg">
  <defs
     id="defs5498" />
  <sodipodi:namedview
     inkscape:window-height="1016"
     inkscape:window-width="1920"
     inkscape:pageshadow="2"
     inkscape:pageopacity="0.0"
     borderopacity="1.0"
     bordercolor="#666666"
     pagecolor="#ffffff"
     id="base"
     showgrid="true"
     showguides="true"
     inkscape:guide-bbox="true"
     inkscape:zoom="6.1596244"
     inkscape:cx="41.560976"
     inkscape:cy="18.031445"
     inkscape:window-x="0"
     inkscape:window-y="27"
     inkscape:current-layer="layer1"
     inkscape:window-maximized="1"
     fit-margin-top="0"
     fit-margin-left="0"
     fit-margin-right="0"
     fit-margin-bottom="0"
     units="px">
    <sodipodi:guide
       orientation="horizontal"
       position="-59.90625,147.53155"
       id="guide5596" />
    <inkscape:grid
       type="xygrid"
       id="grid3002"
       empspacing="5"
       visible="true"
       enabled="true"
       snapvisiblegridlinesonly="true"
       originx="-59.90625px"
       originy="-52.468451px" />
  </sodipodi:namedview>
  <metadata
     id="metadata5594">
    <rdf:RDF>
      <cc:Work
         rdf:about="">
        <dc:format>image/svg+xml</dc:format>
        <dc:type
           rdf:resource="http://purl.org/dc/dcmitype/StillImage" />
        <dc:title />
      </cc:Work>
    </rdf:RDF>
  </metadata>
  <g
     inkscape:label="Layer 1"
     inkscape:groupmode="layer"
     id="layer1"
     transform="translate(-59.90625,-911.46875)">
    <path
       style="fill:#000000;fill-opacity:1;stroke:#000000;stroke-width:0.25599998px;stroke-linecap:butt;stroke-linejoin:miter;stroke-opacity:1"
       d="m 0.125,0.15625 c 0,8.85841 3.116369,15.23356 7.65625,19.1875 l 0,16.625 6.40625,0 0,-12.90625 c 4.138834,1.43125 8.674113,1.4329 12.8125,0 0.07074,12.88248 0.922057,12.90625 11.5,12.90625 l 0,-6.375 c -5.116966,0 -5.093744,-0.028 -5.09375,-10.25 4.539888,-3.95394 7.65625,-10.32909 7.65625,-19.1875 l -40.9375,0 z m 69.84375,1.15625 0,4.5 5.03125,0 0,-4.5 -5.03125,0 z m 31.96875,0 0,26.25 5.03125,0 0,-26.25 -5.03125,0 z m 9.6875,0 0,26.25 5.03125,0 0,-26.25 -5.03125,0 z M 7.78125,5.25 l 6.40625,0 c 0,8.96 12.8125,8.96 12.8125,0 l 6.40625,0 c 0,16.64 -25.625,16.64 -25.625,0 z M 57.875,7.8125 C 55.47499,7.8125198 53.668741,8.8640187 52.46875,11 l 0,-2.875 -5.03125,0 0,27.28125 5.03125,0 0,-10.15625 c 1.199991,2.112 3.00624,3.187499 5.40625,3.1875 2.327985,-1e-6 4.245233,-0.9935 5.78125,-2.9375 C 65.21623,23.532004 65.999979,21.077006 66,18.125 65.999979,15.173012 65.26923,12.718015 63.78125,10.75 62.293233,8.7820188 60.322985,7.8125198 57.875,7.8125 z m 30.65625,0 c -2.976008,1.98e-5 -5.327256,0.9020188 -7.03125,2.75 -1.704002,1.824015 -2.562501,4.339263 -2.5625,7.53125 -10e-7,3.192006 0.858498,5.714504 2.5625,7.5625 1.703994,1.824 4.062492,2.718749 7.0625,2.71875 2.951986,-1e-6 5.303234,-0.89475 7.03125,-2.71875 1.72798,-1.823996 2.562479,-4.286244 2.5625,-7.40625 -2.1e-5,-3.287987 -0.82727,-5.863485 -2.53125,-7.6875 -1.680016,-1.8479812 -4.045764,-2.7499802 -7.09375,-2.75 z m 41.46875,0 c -2.97601,1.98e-5 -5.29601,0.9020188 -7,2.75 -1.704,1.824015 -2.5625,4.339263 -2.5625,7.53125 0,3.192006 0.8585,5.714504 2.5625,7.5625 1.70399,1.824 4.03124,2.718749 7.03125,2.71875 2.95199,-1e-6 5.30323,-0.89475 7.03125,-2.71875 1.72798,-1.823996 2.59373,-4.286244 2.59375,-7.40625 -2e-5,-3.287987 -0.85852,-5.863485 -2.5625,-7.6875 C 135.41373,8.7145188 133.04799,7.8125198 130,7.8125 z m -60.03125,0.3125 0,19.4375 5.03125,0 0,-19.4375 -5.03125,0 z m 18.59375,3.75 c 1.391988,1.6e-5 2.496486,0.566765 3.3125,1.71875 0.839985,1.128013 1.249984,2.642511 1.25,4.5625 -1.6e-5,1.824008 -0.417265,3.316756 -1.28125,4.46875 -0.840013,1.128004 -1.937262,1.687503 -3.28125,1.6875 -1.36801,3e-6 -2.472509,-0.566746 -3.3125,-1.71875 -0.840007,-1.151994 -1.250006,-2.651992 -1.25,-4.5 -6e-6,-1.847989 0.409993,-3.347987 1.25,-4.5 0.839991,-1.151985 1.94449,-1.718734 3.3125,-1.71875 z m 41.46875,0 c 1.39199,1.6e-5 2.49649,0.566765 3.3125,1.71875 0.83998,1.128013 1.28123,2.642511 1.28125,4.5625 -2e-5,1.824008 -0.44852,3.316756 -1.3125,4.46875 -0.84001,1.128004 -1.93726,1.687503 -3.28125,1.6875 -1.36801,3e-6 -2.47251,-0.566746 -3.3125,-1.71875 -0.84001,-1.151994 -1.25001,-2.651992 -1.25,-4.5 -1e-5,-1.847989 0.40999,-3.347987 1.25,-4.5 0.83999,-1.151985 1.94449,-1.718734 3.3125,-1.71875 z M 56.71875,12 c 1.271987,1.6e-5 2.294486,0.598015 3.0625,1.75 0.791985,1.128013 1.187484,2.589511 1.1875,4.4375 -1.6e-5,1.752008 -0.395515,3.215756 -1.1875,4.34375 -0.792014,1.128004 -1.814513,1.687503 -3.0625,1.6875 -1.27201,3e-6 -2.301759,-0.552246 -3.09375,-1.65625 -0.768008,-1.127994 -1.156257,-2.613492 -1.15625,-4.4375 -7e-6,-1.823989 0.388242,-3.309487 1.15625,-4.4375 0.791991,-1.127985 1.82174,-1.687484 3.09375,-1.6875 z"
       transform="translate(59.90625,911.4375)"
       id="path3000"
       inkscape:connector-curvature="0" />
  </g>
</svg>
